<svg xmlns="http://www.w3.org/2000/svg" viewBox="0 0 400 400" width="400" height="400" role="img" aria-label="Portrait placeholder of Emily Weir">
  <defs>
    <linearGradient id="bg" x1="0" y1="0" x2="1" y2="1">
      <stop offset="0" stop-color="#f5f3ef" />
      <stop offset="1" stop-color="#e7e2da" />
    </linearGradient>
    <linearGradient id="skin" x1="0" y1="0" x2="0" y2="1">
      <stop offset="0" stop-color="#f1d7c0" />
      <stop offset="1" stop-color="#e0bfa3" />
    </linearGradient>
    <linearGradient id="hair" x1="0" y1="0" x2="0" y2="1">
      <stop offset="0" stop-color="#3b2a1e" />
      <stop offset="1" stop-color="#6b4a34" />
    </linearGradient>
    <linearGradient id="shirt" x1="0" y1="0" x2="0" y2="1">
      <stop offset="0" stop-color="#2a2a2a" />
      <stop offset="1" stop-color="#141414" />
    </linearGradient>
  </defs>
  <rect width="400" height="400" fill="url(#bg)" />
  <path d="M60 400 C 60 300, 140 260, 200 260 C 260 260, 340 300, 340 400 Z" fill="url(#shirt)" />
  <path d="M135 150 C 135 100, 265 100, 265 150 L 265 230 C 265 275, 235 305, 200 305 C 165 305, 135 275, 135 230 Z" fill="url(#skin)" />
  <path d="M130 155 C 130 95, 270 90, 275 160 C 277 190, 268 200, 265 200 C 263 175, 255 160, 245 155 C 230 150, 215 158, 200 156 C 185 154, 170 145, 155 150 C 142 155, 138 175, 135 200 C 130 198, 126 180, 130 155 Z" fill="url(#hair)" />
  <ellipse cx="172" cy="200" rx="5" ry="6" fill="#2b1e14" />
  <ellipse cx="228" cy="200" rx="5" ry="6" fill="#2b1e14" />
  <path d="M185 248 Q 200 258 215 248" stroke="#8a4a40" stroke-width="3" fill="none" stroke-linecap="round" />
  <path d="M196 215 Q 200 230 205 235" stroke="#b48868" stroke-width="2.5" fill="none" stroke-linecap="round" />
</svg>
